<svg width="0" height="0" class="hidden">
  <symbol xmlns="http://www.w3.org/2000/svg" viewBox="0 0 32 32" id="svg-arrow">
    <path d="M14.7897 10.7897C15.4591 10.1202 16.5462 10.1202 17.2157 10.7897L27.4979 21.0719C28.1674 21.7414 28.1674 22.8285 27.4979 23.4979C26.8285 24.1673 25.7414 24.1673 25.072 23.4979L16 14.4259L6.92804 23.4926C6.25862 24.162 5.17148 24.162 4.50206 23.4926C3.83265 22.8231 3.83265 21.736 4.50206 21.0666L14.7843 10.7843L14.7897 10.7897Z"></path>
  </symbol>
  <symbol xmlns="http://www.w3.org/2000/svg" viewBox="0 0 25 24" id="svg-star">
    <path d="M13.7212 0.843656C13.4728 0.328088 12.9479 0 12.3714 0C11.7949 0 11.2747 0.328088 11.0216 0.843656L8.00788 7.04452L1.27748 8.03816C0.715055 8.12253 0.246365 8.51623 0.0729491 9.05524C-0.100466 9.59424 0.0401406 10.1895 0.443215 10.5879L5.32697 15.4201L4.17399 22.2491C4.08025 22.8115 4.3146 23.3833 4.7786 23.7161C5.24261 24.0489 5.85659 24.0911 6.36278 23.8239L12.3761 20.6133L18.3894 23.8239C18.8956 24.0911 19.5096 24.0536 19.9736 23.7161C20.4376 23.3786 20.6719 22.8115 20.5782 22.2491L19.4205 15.4201L24.3043 10.5879C24.7073 10.1895 24.8526 9.59424 24.6745 9.05524C24.4964 8.51623 24.0324 8.12253 23.47 8.03816L16.7349 7.04452L13.7212 0.843656Z"></path>
  </symbol>
  <symbol xmlns="http://www.w3.org/2000/svg" viewBox="0 0 211 68" id="svg-logo">
    <path
          d="M20.5745 34.6485L9.34014 46.1362V62.2561H0.5V0H9.34014V34.8338L42.859 0H52.9883L26.6521 27.9782L54.83 62.2561H44.5165L20.5745 34.6485Z"
        />
        <path
          d="M119.289 57.2534L122.789 50.5831C126.84 53.3624 133.102 55.4005 139.18 55.4005C147.099 55.4005 150.23 52.9918 150.23 48.9155C150.23 38.3542 120.578 47.4332 120.578 28.7193C120.578 20.1962 128.129 14.6376 140.1 14.6376C146.178 14.6376 153.176 16.3051 157.228 18.8992L153.545 25.5695C149.309 22.7902 144.705 21.8637 140.1 21.8637C132.734 21.8637 129.05 24.643 129.05 28.3487C129.05 39.4659 158.702 30.3869 158.702 48.7302C158.702 57.2534 150.966 62.6267 138.443 62.6267C130.892 62.812 123.157 60.4032 119.289 57.2534Z"
        />
        <path
          d="M210.822 33.7221V62.2561H202.718V55.9564C199.956 60.218 194.615 62.6267 187.248 62.6267C176.566 62.6267 169.936 56.8828 169.936 48.7303C169.936 41.1335 174.724 35.0191 188.721 35.0191H202.166V33.3515C202.166 26.1254 197.93 22.0491 189.642 22.0491C184.117 22.0491 178.408 24.0872 174.724 27.0518L171.225 20.5668C176.014 16.6758 183.012 14.4523 190.563 14.4523C203.639 14.6376 210.822 20.9373 210.822 33.7221ZM202.35 47.8038V41.1335H189.274C180.802 41.1335 178.408 44.4687 178.408 48.3597C178.408 52.9918 182.275 55.9564 188.721 55.9564C195.167 56.1417 200.324 53.3624 202.35 47.8038Z"
        />
        <path
          d="M92.0322 49.8419V62.4414L97.3731 59.2915V46.6921L92.0322 49.8419Z"
        />
        <path
          d="M106.766 34.4632L84.8496 21.6784L72.6944 14.6376L60.7234 35.5749L60.9076 55.2152L82.6396 68L84.8496 66.703V48.1744L94.6106 30.9428L104.556 36.6866V55.2152L106.766 53.9182V34.4632Z"
        />
  </symbol>
</svg>